<svg id="visual" viewBox="0 0 900 600" width="900" height="600" xmlns="http://www.w3.org/2000/svg" xmlns:xlink="http://www.w3.org/1999/xlink" version="1.1"><rect x="0" y="0" width="900" height="600" fill="#1b213000"></rect><path d="M0 544L15 544.3C30 544.7 60 545.3 90 545C120 544.7 150 543.3 180 541.2C210 539 240 536 270 533.8C300 531.7 330 530.3 360 530C390 529.7 420 530.3 450 532.2C480 534 510 537 540 538.5C570 540 600 540 630 540.5C660 541 690 542 720 540.7C750 539.3 780 535.7 810 534.8C840 534 870 536 885 537L900 538L900 601L885 601C870 601 840 601 810 601C780 601 750 601 720 601C690 601 660 601 630 601C600 601 570 601 540 601C510 601 480 601 450 601C420 601 390 601 360 601C330 601 300 601 270 601C240 601 210 601 180 601C150 601 120 601 90 601C60 601 30 601 15 601L0 601Z" fill="#7c5cff" stroke-linecap="round" stroke-linejoin="miter"></path></svg>