<svg xmlns="http://www.w3.org/2000/svg" xmlns:xlink="http://www.w3.org/1999/xlink" viewBox="0 0 24 24" shape-rendering="geometricPrecision" text-rendering="geometricPrecision" project-id="1b572a93b1bd4e8db55889d0728977d7" export-id="ecae44a3f92646da9aa4cfc57d463abe">
<style>
<![CDATA[
  /* Анимация основной иконки */
  #eZH8sbFMGEV3_tr {
    animation: eZH8sbFMGEV3_tr__tr 1500ms linear infinite normal forwards;
  }
  @keyframes eZH8sbFMGEV3_tr__tr {
    0%   { transform: translate(12px,12px) rotate(-45deg); animation-timing-function: cubic-bezier(0.42,0,0.58,1); }
    100% { transform: translate(12px,12px) rotate(45deg); }
  }

  #eZH8sbFMGEV3_ts {
    animation: eZH8sbFMGEV3_ts__ts 1500ms linear infinite normal forwards;
  }
  @keyframes eZH8sbFMGEV3_ts__ts {
    0%   { transform: scale(1,1); }
    50%  { transform: scale(0.9,0.9); }
    100% { transform: scale(1,1); }
  }

  #eZH8sbFMGEV8_tr {
    animation: eZH8sbFMGEV8_tr__tr 1500ms linear infinite normal forwards;
  }
  @keyframes eZH8sbFMGEV8_tr__tr {
    0%   { transform: translate(11.999989px,11.999989px) rotate(0deg); animation-timing-function: cubic-bezier(0.42,0,0.58,1); }
    100% { transform: translate(11.999989px,11.999989px) rotate(90deg); }
  }

  #eZH8sbFMGEV8_ts {
    animation: eZH8sbFMGEV8_ts__ts 1500ms linear infinite normal forwards;
  }
  @keyframes eZH8sbFMGEV8_ts__ts {
    0%   { transform: scale(1,1); }
    50%  { transform: scale(0.9,0.9); }
    100% { transform: scale(1,1); }
  }

  /* Если у тебя есть другие анимации (сердечко/круг и т.д.) */
  #eZH8sbFMGEV20_tr {
    animation: eZH8sbFMGEV20_tr__tr 1500ms linear infinite normal forwards;
  }
  @keyframes eZH8sbFMGEV20_tr__tr {
    0%   { transform: translate(135.33781px,207.03926px) rotate(720deg); animation-timing-function: cubic-bezier(0.415,0.08,0.115,0.955); }
    100% { transform: translate(135.33781px,207.03926px) rotate(579.74026deg); }
  }

  #eZH8sbFMGEV21_tr {
    animation: eZH8sbFMGEV21_tr__tr 1500ms linear infinite normal forwards;
  }
  @keyframes eZH8sbFMGEV21_tr__tr {
    0%   { transform: translate(11.12px,29.9px) rotate(-720deg); animation-timing-function: cubic-bezier(0.415,0.08,0.115,0.955); }
    100% { transform: translate(11.12px,29.9px) rotate(-579.74026deg); }
  }
]]>
</style>
<g><g id="eZH8sbFMGEV3_tr" transform="translate(12,12) rotate(-45)"><g id="eZH8sbFMGEV3_ts" transform="scale(1,1)"><g transform="translate(-11.988257,-12.011733)"><path d="M4.39665,4.396666c.29289-.29289.76777-.29289,1.06066,0L6.87359,5.81293c.29289.2929.29289.76777,0,1.06066s-.76776.29289-1.06066,0L4.39665,5.457326c-.29289-.29289-.29289-.76777,0-1.06066Z" fill="#be5661" stroke="#b23a48" stroke-width="0.00024" stroke-linecap="square"/><path d="M6.87338,17.1266c.29289.2929.29289.7678,0,1.0607L5.442879,19.617753c-.29289.2929-.76777.2929-1.06066,0s-.292885-.767755.000005-1.060655L5.81272,17.1266c.29289-.2929.76776-.2929,1.06066,0Z" fill="#be5661" stroke="#b23a48" stroke-width="0.00024"/><path d="M17.1266,17.1266c.2929-.2929.7678-.2929,1.0607,0l1.398003,1.398101c.2929.2929.2929.7677,0,1.0606s-.7677.2929-1.0606,0L17.1266,18.1873c-.2929-.2929-.2929-.7678,0-1.0607Z" fill="#be5661" stroke="#b23a48" stroke-width="0.00024"/><path d="M19.585003,4.414969c.2929.29289.2929.76777,0,1.06066L18.1871,6.87359c-.2929.29289-.7678.29289-1.0607,0s-.2929-.76776,0-1.06066l1.398003-1.397961c.2929-.29289.7677-.29289,1.0606,0Z" fill="#be5661" stroke="#b23a48" stroke-width="0.00024"/></g></g></g><g id="eZH8sbFMGEV8_tr" transform="translate(11.999989,11.999989) rotate(0)"><g id="eZH8sbFMGEV8_ts" transform="scale(1,1)"><g transform="translate(-11.999989,-11.999989)" opacity="0.84"><path d="M5.46967,5.46967c.29289-.29289.76777-.29289,1.06066,0l.34326.34326c.29289.2929.29289.76777,0,1.06066s-.76776.29289-1.06066,0l-.34326-.34326c-.29289-.29289-.29289-.76777,0-1.06066Z" fill="#b23a48" fill-opacity="0.9" stroke="#ce7da5" stroke-width="0.00024"/><path d="M6.87338,17.1266c.29289.2929.29289.7678,0,1.0607l-.34305.343c-.29289.2929-.76777.2929-1.06066,0s-.29289-.7677,0-1.0606l.34305-.3431c.29289-.2929.76776-.2929,1.06066,0Z" fill="#b23a48" fill-opacity="0.9" stroke="#ce7da5" stroke-width="0.00024"/><path d="M17.1266,17.1266c.2929-.2929.7678-.2929,1.0607,0l.343.3431c.2929.2929.2929.7677,0,1.0606s-.7677.2929-1.0606,0l-.3431-.343c-.2929-.2929-.2929-.7678,0-1.0607Z" fill="#b23a48" fill-opacity="0.9" stroke="#ce7da5" stroke-width="0.00024"/><path d="M18.5303,5.46967c.2929.29289.2929.76777,0,1.06066l-.3432.34326c-.2929.29289-.7678.29289-1.0607,0s-.2929-.76776,0-1.06066l.3433-.34326c.2929-.29289.7677-.29289,1.0606,0Z" fill="#b23a48" fill-opacity="0.9" stroke="#ce7da5" stroke-width="0.00024"/></g></g></g><path d="M7,11.0595c0,2.5423,2.00971,3.8971,3.4809,5.1097C11,16.5971,11.5,17,12,17s1-.4029,1.5191-.8308C14.9903,14.9566,17,13.6018,17,11.0595s-2.7501-4.34529-5-1.90113C9.75008,6.71421,7,8.51718,7,11.0595Z" fill="#b23a48" stroke="#ce7da5" stroke-width="0.00024"/></g></svg>
